<svg width="433" height="433" viewBox="0 0 433 433" fill="none" xmlns="http://www.w3.org/2000/svg">
<circle cx="216.5" cy="216.5" r="216.5" fill="#3E3968"/>
<circle cx="216.5" cy="216.5" r="166.5" fill="#40428C"/>
<circle cx="216.5" cy="216.5" r="116.5" fill="#4C529B"/>
<path d="M118.244 110.841C118.244 115.777 114.242 119.779 109.306 119.779C104.37 119.779 100.368 115.777 100.368 110.841C100.368 105.905 104.37 101.903 109.306 101.903C114.242 101.903 118.244 105.905 118.244 110.841Z" fill="#D6EEFC"/>
<path d="M196.451 137.973C196.451 141.47 193.616 144.304 190.12 144.304C186.623 144.304 183.789 141.47 183.789 137.973C183.789 134.476 186.623 131.642 190.12 131.642C193.616 131.642 196.451 134.476 196.451 137.973Z" fill="#D6EEFC"/>
<path d="M179.318 55.3521C179.318 57.2031 177.817 58.7041 175.966 58.7041C174.115 58.7041 172.616 57.2031 172.616 55.3521C172.616 53.5011 174.115 52.0001 175.966 52.0001C177.817 52.0001 179.318 53.5011 179.318 55.3521Z" fill="#D6EEFC"/>
<path d="M393.086 145.104C393.086 146.955 391.584 148.456 389.733 148.456C387.882 148.456 386.382 146.955 386.382 145.104C386.382 143.253 387.882 141.752 389.733 141.752C391.584 141.752 393.086 143.253 393.086 145.104Z" fill="#D6EEFC"/>
<path d="M46.7012 186.069C46.7012 187.92 45.2002 189.421 43.3492 189.421C41.4982 189.421 39.9992 187.92 39.9992 186.069C39.9992 184.218 41.4982 182.717 43.3492 182.717C45.2002 182.717 46.7012 184.218 46.7012 186.069Z" fill="#D6EEFC"/>
<path d="M353.982 198.731C353.982 200.582 352.48 202.083 350.629 202.083C348.778 202.083 347.278 200.582 347.278 198.731C347.278 196.88 348.778 195.379 350.629 195.379C352.48 195.379 353.982 196.88 353.982 198.731Z" fill="#D6EEFC"/>
<path d="M330.745 344.687C330.387 339.764 334.087 335.482 339.01 335.123C343.933 334.764 348.215 338.465 348.574 343.388C348.933 348.311 345.232 352.593 340.309 352.952C335.386 353.311 331.104 349.61 330.745 344.687Z" fill="#D6EEFC"/>
<path d="M251.501 333.284C251.247 329.796 253.869 326.764 257.355 326.51C260.843 326.256 263.875 328.876 264.13 332.364C264.384 335.852 261.763 338.884 258.275 339.138C254.789 339.392 251.755 336.772 251.501 333.284Z" fill="#D6EEFC"/>
<path d="M273.867 404.468C273.732 402.622 275.12 401.016 276.966 400.881C278.812 400.747 280.416 402.135 280.551 403.981C280.685 405.827 279.299 407.433 277.453 407.568C275.607 407.702 274.001 406.314 273.867 404.468Z" fill="#D6EEFC"/>
<path d="M54.1401 330.489C54.0056 328.643 55.3945 327.036 57.2406 326.902C59.0867 326.767 60.6918 328.155 60.8264 330.001C60.9609 331.848 59.5739 333.454 57.7278 333.588C55.8817 333.723 54.2746 332.335 54.1401 330.489Z" fill="#D6EEFC"/>
<path d="M396.632 264.459C396.498 262.613 397.886 261.007 399.732 260.872C401.578 260.738 403.182 262.126 403.317 263.972C403.451 265.818 402.065 267.424 400.219 267.558C398.373 267.693 396.767 266.305 396.632 264.459Z" fill="#D6EEFC"/>
<path d="M89.2436 274.162C89.1091 272.316 90.498 270.709 92.3441 270.575C94.1902 270.44 95.7954 271.828 95.9299 273.675C96.0644 275.521 94.6774 277.127 92.8313 277.261C90.9852 277.396 89.3781 276.008 89.2436 274.162Z" fill="#D6EEFC"/>
<path d="M35 102C57.2879 111.988 110.907 129.744 147.081 120.866C192.298 109.768 206.248 120.866 214.907 132.518C223.566 144.171 235.11 181.902 225.009 241.274C214.907 300.646 201.919 348.92 184.602 351.695C167.284 354.469 136.017 337.823 147.081 322.841C158.145 307.859 177.386 303.975 214.907 322.841C244.923 337.934 293.476 329.13 314 322.841" stroke="#FFD952" stroke-width="5"/>
<path d="M258.5 174.086C274.33 164.439 312.001 148.04 336.043 159.616C360.085 171.192 365.353 180.022 364.982 182.99C356.943 192.389 337.007 210 321.573 205.251C306.139 200.502 287.192 188.432 279.648 182.99C284.348 180.022 297.976 174.086 314.895 174.086C317.387 174.086 319.604 174.214 321.573 174.444M321.573 174.444C332.968 175.77 336.043 180.459 336.043 182.99C336.414 187.195 335.598 195.011 329.364 192.636C323.131 190.262 321.573 179.519 321.573 174.444Z" stroke="#FFD952" stroke-width="5"/>
</svg>
