<svg width="601" height="501" viewBox="0 0 601 501" fill="none" xmlns="http://www.w3.org/2000/svg">
<g style="mix-blend-mode:multiply" opacity="0.38">
<g style="mix-blend-mode:multiply">
<g style="mix-blend-mode:multiply">
<path d="M409.909 41.731C462.047 41.731 504.379 84.5133 504.379 137.206C504.379 189.899 462.047 232.681 409.909 232.681C357.771 232.681 315.439 189.899 315.439 137.206C315.439 84.5133 357.771 41.731 409.909 41.731Z" fill="#A6E5FF"/>
</g>
<g style="mix-blend-mode:multiply">
<path d="M409.909 41.731C462.047 41.731 504.379 84.5133 504.379 137.206C504.379 189.899 462.047 232.681 409.909 232.681C357.771 232.681 315.439 189.899 315.439 137.206C315.439 84.5133 357.771 41.731 409.909 41.731Z" stroke="#63C0ED" stroke-width="8.04"/>
</g>
</g>
</g>
<path d="M332.166 112.08C374.527 112.08 408.952 142.509 408.952 180.09C408.952 238.608 408.952 321.572 408.952 371.768C408.952 383.342 403.698 394.523 394.422 402.716C385.146 411.039 372.627 415.59 359.438 415.59C317.413 415.59 257.282 415.59 215.257 415.59C202.179 415.59 189.549 410.909 180.272 402.716C170.996 394.523 165.742 383.342 165.742 371.768V112.08C165.742 112.08 260.857 112.08 332.166 112.08Z" fill="#788BFF"/>
<path d="M183.965 112.081H127.553V156.152H183.965V112.081Z" fill="#788BFF"/>
<path d="M87.3516 152.507C87.3516 153.974 87.3516 155.276 87.5083 156.744H164.857C165.014 155.439 165.014 153.974 165.014 152.507C165.014 130.176 147.633 112.082 126.183 112.082C104.732 112.082 87.3516 130.176 87.3516 152.507Z" fill="#465282"/>
<path d="M246.143 307.695C246.143 309.199 246.145 310.536 246.311 312.039H328.846C329.013 310.702 329.015 309.199 329.015 307.695C329.015 284.806 310.469 266.259 287.579 266.259C264.689 266.259 246.143 284.806 246.143 307.695Z" fill="white"/>
<path d="M287.491 259.759C299.409 259.759 309.071 250.097 309.071 238.179C309.071 226.262 299.409 216.6 287.491 216.6C275.574 216.6 265.912 226.262 265.912 238.179C265.912 250.097 275.574 259.759 287.491 259.759Z" fill="white"/>
<g opacity="0.29">
<path d="M89.6107 274.029C95.9421 274.029 101.083 279.169 101.083 285.501C101.083 291.832 95.9421 296.973 89.6107 296.973C83.2793 296.973 78.1387 291.832 78.1387 285.501C78.1387 279.169 83.2793 274.029 89.6107 274.029Z" stroke="#B3C0D7" stroke-width="8.32384"/>
</g>
<g opacity="0.15">
<path d="M517.73 252.714C538.648 252.714 555.631 269.698 555.631 290.615C555.631 311.533 538.648 328.517 517.73 328.517C496.812 328.517 479.828 311.533 479.828 290.615C479.828 269.698 496.812 252.714 517.73 252.714Z" stroke="#B3C0D7" stroke-width="24.12"/>
</g>
<g style="mix-blend-mode:multiply">
<g style="mix-blend-mode:multiply">
<g style="mix-blend-mode:multiply">
<path d="M173.533 367.343C173.533 355.329 163.795 345.498 151.707 345.498C139.618 345.498 129.88 355.329 129.88 367.343C129.88 379.356 139.618 389.187 151.707 389.187C163.71 389.187 173.533 379.441 173.533 367.343ZM170.51 324.913C160.1 314.496 143.228 314.496 132.819 324.913C125.347 332.391 116.785 340.961 109.229 348.439C98.8194 358.856 98.8194 375.744 109.229 386.162C116.785 393.724 125.347 402.294 132.819 409.772C143.228 420.189 160.1 420.189 170.51 409.772C178.066 402.294 186.628 393.724 194.099 386.247C204.509 375.829 204.509 358.941 194.099 348.523C186.544 340.961 177.981 332.391 170.51 324.913Z" fill="#51BDE2"/>
</g>
</g>
</g>
<g style="mix-blend-mode:multiply">
<g style="mix-blend-mode:multiply">
<g style="mix-blend-mode:multiply">
<path d="M409.431 70.4307C446.402 70.4307 476.42 100.449 476.42 137.42C476.42 174.391 446.402 204.409 409.431 204.409C372.459 204.409 342.441 174.391 342.441 137.42C342.441 100.449 372.459 70.4307 409.431 70.4307Z" fill="#DEEFF3"/>
</g>
<g style="mix-blend-mode:multiply">
<path d="M409.431 70.4307C446.402 70.4307 476.42 100.449 476.42 137.42C476.42 174.391 446.402 204.409 409.431 204.409C372.459 204.409 342.441 174.391 342.441 137.42C342.441 100.449 372.459 70.4307 409.431 70.4307Z" stroke="white" stroke-width="8.04"/>
</g>
</g>
</g>
<g style="mix-blend-mode:overlay">
<g style="mix-blend-mode:overlay">
<path d="M390.145 137.206L403.545 154.291L433.695 118.111" stroke="white" stroke-width="13.4" stroke-linecap="round"/>
</g>
</g>
</svg>
